<mxfile host="app.diagrams.net" modified="2023-09-19T02:40:48.116Z" agent="Mozilla/5.0 (Windows NT 10.0; Win64; x64) AppleWebKit/537.36 (KHTML, like Gecko) Chrome/116.0.0.0 Safari/537.36" version="21.7.5" etag="-PNhklPAxeWKaKc0Y62O" type="github">
  <diagram name="第 1 页" id="V37wfEc_nJwVgLpaiR_z">
    <mxGraphModel>
      <root>
        <mxCell id="0" />
        <mxCell id="1" parent="0" />
      </root>
    </mxGraphModel>
  </diagram>
</mxfile>
